HIERARCHY
ROOT Hips
{
	OFFSET 0.000000 100.481300 0.000000
	CHANNELS 6 Xposition Yposition Zposition Xrotation Yrotation Zrotation 
	JOINT Spine
	{
		OFFSET -0.279200 12.230698 -2.892100
		CHANNELS 3 Xrotation Yrotation Zrotation
		JOINT Spine1
		{
			OFFSET -0.232667 10.192268 -1.242267
			CHANNELS 3 Xrotation Yrotation Zrotation
			JOINT Spine1_split
			{
				OFFSET -0.232667 10.192268 -1.242267
				CHANNELS 3 Xrotation Yrotation Zrotation
				JOINT Spine2
				{
					OFFSET -0.232667 10.192268 -1.242267
					CHANNELS 3 Xrotation Yrotation Zrotation
					JOINT Neck
					{
						OFFSET -0.418800 17.814194 8.416900
						CHANNELS 3 Xrotation Yrotation Zrotation
						JOINT Head
						{
							OFFSET 0.000000 7.031097 3.806800
							CHANNELS 3 Xrotation Yrotation Zrotation
							JOINT HeadTop_End
							{
								OFFSET 0.000000 24.646606 12.978600
								CHANNELS 3 Xrotation Yrotation Zrotation
								End Site
								{
									OFFSET 0.000000 0.000000 0.000000
								}
							}
						}
					}
					JOINT LeftShoulder
					{
						OFFSET 8.476499 7.247704 -3.868750
						CHANNELS 3 Xrotation Yrotation Zrotation
						JOINT LeftShoulder_split
						{
							OFFSET 8.476499 7.247704 -3.868750
							CHANNELS 3 Xrotation Yrotation Zrotation
							JOINT LeftArm
							{
								OFFSET 9.308998 -2.777710 0.208600
								CHANNELS 3 Xrotation Yrotation Zrotation
								JOINT LeftForeArm
								{
									OFFSET 29.972298 0.000000 0.000000
									CHANNELS 3 Xrotation Yrotation Zrotation
									JOINT LeftHand
									{
										OFFSET 26.026505 0.000000 0.000000
										CHANNELS 3 Xrotation Yrotation Zrotation
										JOINT LeftHandThumb1
										{
											OFFSET 12.240501 -7.147949 9.207150
											CHANNELS 3 Xrotation Yrotation Zrotation
											JOINT LeftHandThumb2
											{
												OFFSET 4.138618 -2.389435 2.389433
												CHANNELS 3 Xrotation Yrotation Zrotation
												JOINT LeftHandThumb3
												{
													OFFSET 2.726913 -1.574387 1.574386
													CHANNELS 3 Xrotation Yrotation Zrotation
													JOINT LeftHandThumb4
													{
														OFFSET 3.941010 -2.275345 2.275342
														CHANNELS 3 Xrotation Yrotation Zrotation
														End Site
														{
															OFFSET 0.000000 0.000000 0.000000
														}
													}
												}
											}
										}
										JOINT LeftHandIndex1
										{
											OFFSET 24.424698 -1.985611 5.953459
											CHANNELS 3 Xrotation Yrotation Zrotation
											JOINT LeftHandIndex2
											{
												OFFSET 6.426697 0.000000 0.000000
												CHANNELS 3 Xrotation Yrotation Zrotation
												JOINT LeftHandIndex3
												{
													OFFSET 5.337898 0.000000 0.000000
													CHANNELS 3 Xrotation Yrotation Zrotation
													JOINT LeftHandIndex4
													{
														OFFSET 4.409401 0.000000 0.000000
														CHANNELS 3 Xrotation Yrotation Zrotation
														End Site
														{
															OFFSET 0.000000 0.000000 0.000000
														}
													}
												}
											}
										}
										JOINT LeftHandMiddle1
										{
											OFFSET 23.810104 0.000000 0.000000
											CHANNELS 3 Xrotation Yrotation Zrotation
											JOINT LeftHandMiddle2
											{
												OFFSET 7.176498 0.000000 0.000000
												CHANNELS 3 Xrotation Yrotation Zrotation
												JOINT LeftHandMiddle3
												{
													OFFSET 6.774902 0.000000 0.000000
													CHANNELS 3 Xrotation Yrotation Zrotation
													JOINT LeftHandMiddle4
													{
														OFFSET 5.403328 0.000000 0.000000
														CHANNELS 3 Xrotation Yrotation Zrotation
														End Site
														{
															OFFSET 0.000000 0.000000 0.000000
														}
													}
												}
											}
										}
										JOINT LeftHandRing1
										{
											OFFSET 22.908401 -0.839279 -6.020567
											CHANNELS 3 Xrotation Yrotation Zrotation
											JOINT LeftHandRing2
											{
												OFFSET 6.337502 0.000000 0.000000
												CHANNELS 3 Xrotation Yrotation Zrotation
												JOINT LeftHandRing3
												{
													OFFSET 5.779297 0.000000 0.000000
													CHANNELS 3 Xrotation Yrotation Zrotation
													JOINT LeftHandRing4
													{
														OFFSET 4.965698 0.000000 0.000000
														CHANNELS 3 Xrotation Yrotation Zrotation
														End Site
														{
															OFFSET 0.000000 0.000000 0.000000
														}
													}
												}
											}
										}
										JOINT LeftHandPinky1
										{
											OFFSET 20.037003 -1.530319 -10.950146
											CHANNELS 3 Xrotation Yrotation Zrotation
											JOINT LeftHandPinky2
											{
												OFFSET 5.254700 0.000000 0.000000
												CHANNELS 3 Xrotation Yrotation Zrotation
												JOINT LeftHandPinky3
												{
													OFFSET 4.810204 0.000000 0.000000
													CHANNELS 3 Xrotation Yrotation Zrotation
													JOINT LeftHandPinky4
													{
														OFFSET 3.647202 0.000000 0.000000
														CHANNELS 3 Xrotation Yrotation Zrotation
														End Site
														{
															OFFSET 0.000000 0.000000 0.000000
														}
													}
												}
											}
										}
									}
								}
							}
						}
					}
					JOINT RightShoulder
					{
						OFFSET -7.570500 7.247704 -3.868750
						CHANNELS 3 Xrotation Yrotation Zrotation
						JOINT RightShoulder_split
						{
							OFFSET -7.570500 7.247704 -3.868750
							CHANNELS 3 Xrotation Yrotation Zrotation
							JOINT RightArm
							{
								OFFSET -9.308998 -2.777710 0.208500
								CHANNELS 3 Xrotation Yrotation Zrotation
								JOINT RightForeArm
								{
									OFFSET -29.972300 0.000000 0.000000
									CHANNELS 3 Xrotation Yrotation Zrotation
									JOINT RightHand
									{
										OFFSET -26.026505 0.000000 0.000000
										CHANNELS 3 Xrotation Yrotation Zrotation
										JOINT RightHandThumb1
										{
											OFFSET -12.240601 -7.148026 9.207092
											CHANNELS 3 Xrotation Yrotation Zrotation
											JOINT RightHandThumb2
											{
												OFFSET -4.138618 -2.389435 2.389433
												CHANNELS 3 Xrotation Yrotation Zrotation
												JOINT RightHandThumb3
												{
													OFFSET -2.726974 -1.574417 1.574421
													CHANNELS 3 Xrotation Yrotation Zrotation
													JOINT RightHandThumb4
													{
														OFFSET -3.941010 -2.275345 2.275343
														CHANNELS 3 Xrotation Yrotation Zrotation
														End Site
														{
															OFFSET 0.000000 0.000000 0.000000
														}
													}
												}
											}
										}
										JOINT RightHandIndex1
										{
											OFFSET -24.424698 -1.985657 5.953444
											CHANNELS 3 Xrotation Yrotation Zrotation
											JOINT RightHandIndex2
											{
												OFFSET -6.426697 0.000000 0.000000
												CHANNELS 3 Xrotation Yrotation Zrotation
												JOINT RightHandIndex3
												{
													OFFSET -5.337898 0.000000 0.000000
													CHANNELS 3 Xrotation Yrotation Zrotation
													JOINT RightHandIndex4
													{
														OFFSET -4.409401 0.000000 0.000000
														CHANNELS 3 Xrotation Yrotation Zrotation
														End Site
														{
															OFFSET 0.000000 0.000000 0.000000
														}
													}
												}
											}
										}
										JOINT RightHandMiddle1
										{
											OFFSET -23.810097 0.000000 0.000000
											CHANNELS 3 Xrotation Yrotation Zrotation
											JOINT RightHandMiddle2
											{
												OFFSET -7.176498 0.000000 0.000000
												CHANNELS 3 Xrotation Yrotation Zrotation
												JOINT RightHandMiddle3
												{
													OFFSET -6.774902 0.000000 0.000000
													CHANNELS 3 Xrotation Yrotation Zrotation
													JOINT RightHandMiddle4
													{
														OFFSET -5.403328 0.000000 0.000000
														CHANNELS 3 Xrotation Yrotation Zrotation
														End Site
														{
															OFFSET 0.000000 0.000000 0.000000
														}
													}
												}
											}
										}
										JOINT RightHandRing1
										{
											OFFSET -22.908302 -0.839325 -6.020576
											CHANNELS 3 Xrotation Yrotation Zrotation
											JOINT RightHandRing2
											{
												OFFSET -6.337502 0.000000 0.000000
												CHANNELS 3 Xrotation Yrotation Zrotation
												JOINT RightHandRing3
												{
													OFFSET -5.779297 0.000000 0.000000
													CHANNELS 3 Xrotation Yrotation Zrotation
													JOINT RightHandRing4
													{
														OFFSET -4.965698 0.000000 0.000000
														CHANNELS 3 Xrotation Yrotation Zrotation
														End Site
														{
															OFFSET 0.000000 0.000000 0.000000
														}
													}
												}
											}
										}
										JOINT RightHandPinky1
										{
											OFFSET -20.037003 -1.530334 -10.950259
											CHANNELS 3 Xrotation Yrotation Zrotation
											JOINT RightHandPinky2
											{
												OFFSET -5.254700 0.000000 0.000000
												CHANNELS 3 Xrotation Yrotation Zrotation
												JOINT RightHandPinky3
												{
													OFFSET -4.810204 0.000000 0.000000
													CHANNELS 3 Xrotation Yrotation Zrotation
													JOINT RightHandPinky4
													{
														OFFSET -3.647202 0.000000 0.000000
														CHANNELS 3 Xrotation Yrotation Zrotation
														End Site
														{
															OFFSET 0.000000 0.000000 0.000000
														}
													}
												}
											}
										}
									}
								}
							}
						}
					}
				}
			}
		}
	}
	JOINT LeftUpLeg
	{
		OFFSET 15.427100 -6.655098 0.678600
		CHANNELS 3 Xrotation Yrotation Zrotation
		JOINT LeftLeg
		{
			OFFSET 4.081073 -39.591068 13.024000
			CHANNELS 3 Xrotation Yrotation Zrotation
			JOINT LeftFoot
			{
				OFFSET -4.081074 -37.707932 -15.979700
				CHANNELS 3 Xrotation Yrotation Zrotation
				JOINT LeftToeBase
				{
					OFFSET 5.346399 -15.068900 20.645000
					CHANNELS 3 Xrotation Yrotation Zrotation
					JOINT LeftToe_End
					{
						OFFSET 2.754700 0.931300 11.300900
						CHANNELS 3 Xrotation Yrotation Zrotation
						End Site
						{
							OFFSET 0.000000 0.000000 0.000000
						}
					}
				}
			}
		}
	}
	JOINT RightUpLeg
	{
		OFFSET -15.569500 -6.655098 0.678600
		CHANNELS 3 Xrotation Yrotation Zrotation
		JOINT RightLeg
		{
			OFFSET -4.081825 -39.591045 13.023800
			CHANNELS 3 Xrotation Yrotation Zrotation
			JOINT RightFoot
			{
				OFFSET 4.081824 -37.707954 -15.979600
				CHANNELS 3 Xrotation Yrotation Zrotation
				JOINT RightToeBase
				{
					OFFSET -5.346400 -15.068900 20.645000
					CHANNELS 3 Xrotation Yrotation Zrotation
					JOINT RightToe_End
					{
						OFFSET -2.754700 0.931300 11.300900
						CHANNELS 3 Xrotation Yrotation Zrotation
						End Site
						{
							OFFSET 0.000000 0.000000 0.000000
						}
					}
				}
			}
		}
	}
}
MOTION
Frames: 4
Frame Time: 0.016667
0.557086 90.021767 -1.258521 1.512918 -26.771099 1.197475 4.030380 -1.440641 0.209186 1.509779 -0.573493 0.095187 0.000000 0.000000 0.000000 1.512357 -0.565986 0.098706 -2.627946 4.190007 2.862240 16.708350 24.088498 -12.351905 -0.000000 0.000000 -0.000000 -0.278006 3.012251 5.812621 0.000000 0.000000 0.000000 -51.694150 -1.278261 -53.239077 0.003892 -85.822037 0.003880 -13.673777 -20.175373 -8.459488 27.590983 19.106257 -21.055327 27.859549 42.153025 14.703698 8.091825 17.848654 9.739460 0.000001 -0.000001 0.000001 6.438754 6.867029 -86.304617 7.312874 6.867698 -93.605297 2.157737 5.009655 -46.582956 -0.000001 0.000001 0.000000 6.436819 6.866911 -86.288409 7.314807 6.867587 -93.621512 2.157737 5.009662 -46.582942 -0.000001 0.000001 0.000001 6.438755 6.867028 -86.304617 7.312875 6.867702 -93.605297 2.157736 5.009653 -46.582966 -0.000002 -0.000000 0.000000 10.514954 7.128921 -86.291032 7.312035 2.781440 -93.595305 2.157739 5.009655 -46.582956 -0.000000 -0.000000 0.000001 -1.118786 -11.889969 10.257411 0.000000 0.000000 0.000000 -58.214693 66.009373 74.019935 0.000627 83.646759 -0.000625 -16.117257 15.251133 -32.686765 35.509604 -4.573163 10.809901 66.380819 -29.907961 29.548723 25.917433 -18.540870 10.281094 -0.000000 -0.000001 0.000001 5.945854 -6.875908 81.685347 8.620188 -6.745019 103.956572 2.650637 -5.464858 51.723810 0.000001 0.000004 -0.000002 5.945854 -6.875907 81.685347 8.620195 -6.745022 103.956565 2.650636 -5.464864 51.723810 0.000002 -0.000001 0.000001 5.945859 -6.875899 81.685340 8.620185 -6.745015 103.956579 2.650636 -5.464861 51.723810 0.000001 -0.000002 0.000002 5.945854 -6.875908 81.685347 8.620202 -6.745027 103.956565 2.650633 -5.464852 51.723807 -0.000001 -0.000000 -0.000000 -28.118987 25.349533 16.110649 27.996915 7.063628 9.850462 -2.776842 1.823767 -14.295686 -0.000072 0.000003 0.000004 -0.000000 -0.000000 -0.000000 -17.447411 -16.363660 -10.779507 30.010345 -1.161610 -6.752215 -14.281984 -2.498544 12.257930 -0.000024 0.000015 0.000003 -0.000000 0.000000 -0.000000 
0.553493 90.021004 -1.252576 1.528804 -26.770399 1.215476 4.017387 -1.446634 0.214083 1.504778 -0.576868 0.097091 0.000000 0.000000 0.000000 1.507367 -0.569386 0.100618 -2.626394 4.193302 2.853713 16.723307 24.085791 -12.361633 0.000001 0.000000 -0.000000 -0.279652 3.035686 5.768245 0.000000 0.000000 0.000000 -51.680900 -1.342415 -53.222893 0.000772 -85.775879 0.000726 -13.811729 -20.364112 -8.525097 27.590986 19.106252 -21.055330 27.859546 42.153021 14.703705 8.091825 17.848655 9.739457 -0.000000 -0.000000 -0.000001 6.438757 6.867030 -86.304624 7.312873 6.867698 -93.605304 2.157736 5.009656 -46.582959 0.000001 -0.000001 -0.000000 6.436823 6.866908 -86.288409 7.314811 6.867586 -93.621512 2.157734 5.009656 -46.582952 -0.000001 0.000001 -0.000000 6.438758 6.867030 -86.304624 7.312875 6.867703 -93.605304 2.157738 5.009650 -46.582962 -0.000000 0.000001 -0.000000 10.514956 7.128919 -86.291032 7.312036 2.781441 -93.595305 2.157739 5.009658 -46.582959 0.000000 -0.000000 0.000000 -1.120090 -11.901476 10.263994 0.000000 0.000000 0.000000 -58.262128 66.059506 74.030016 0.000221 83.625517 -0.000170 -16.127161 15.168988 -32.708813 35.509600 -4.573163 10.809905 66.380812 -29.907961 29.548720 25.917429 -18.540871 10.281097 -0.000000 -0.000001 0.000001 5.945851 -6.875911 81.685347 8.620186 -6.745019 103.956572 2.650640 -5.464859 51.723810 -0.000001 0.000001 -0.000000 5.945852 -6.875910 81.685347 8.620197 -6.745021 103.956572 2.650634 -5.464860 51.723814 0.000000 -0.000005 0.000003 5.945856 -6.875901 81.685340 8.620190 -6.745015 103.956579 2.650638 -5.464863 51.723810 0.000001 -0.000000 0.000001 5.945853 -6.875908 81.685347 8.620202 -6.745024 103.956572 2.650636 -5.464855 51.723814 0.000002 -0.000001 -0.000001 -28.130114 25.375420 16.103148 27.993901 7.045080 9.851259 -2.779648 1.822625 -14.289369 -0.000072 0.000003 0.000004 -0.000000 -0.000000 -0.000000 -17.490974 -16.445299 -10.776624 30.024883 -1.093256 -6.811633 -14.290236 -2.493719 12.254269 -0.000024 0.000014 0.000003 0.000000 -0.000000 -0.000000 
0.550542 90.019005 -1.246079 1.545503 -26.766359 1.229809 4.004887 -1.453205 0.219367 1.499960 -0.580350 0.099078 0.000000 0.000000 0.000000 1.502555 -0.572887 0.102616 -2.623186 4.196173 2.846583 16.734045 24.083209 -12.365514 -0.000000 0.000000 0.000000 -0.280746 3.056235 5.722900 0.000000 0.000000 0.000000 -51.672809 -1.406300 -53.202847 0.000940 -85.730820 0.000951 -13.921667 -20.527415 -8.571545 27.590983 19.106257 -21.055323 27.859551 42.153018 14.703698 8.091827 17.848652 9.739459 0.000001 0.000001 -0.000000 6.438754 6.867028 -86.304624 7.312875 6.867698 -93.605304 2.157736 5.009656 -46.582962 0.000001 -0.000001 0.000000 6.436819 6.866910 -86.288409 7.314805 6.867587 -93.621519 2.157736 5.009661 -46.582945 0.000001 -0.000001 -0.000000 6.438754 6.867028 -86.304624 7.312877 6.867701 -93.605304 2.157735 5.009652 -46.582966 0.000000 0.000000 0.000001 10.514954 7.128919 -86.291032 7.312038 2.781442 -93.595298 2.157736 5.009658 -46.582962 -0.000000 0.000000 0.000000 -1.121289 -11.910760 10.267825 0.000000 0.000000 0.000000 -58.301026 66.100542 74.036102 0.000698 83.610845 -0.000695 -16.139139 15.077363 -32.725547 35.509604 -4.573167 10.809906 66.380812 -29.907961 29.548720 25.917426 -18.540875 10.281092 -0.000001 -0.000001 0.000004 5.945854 -6.875910 81.685354 8.620185 -6.745017 103.956572 2.650636 -5.464860 51.723814 -0.000000 0.000002 -0.000000 5.945854 -6.875910 81.685354 8.620195 -6.745022 103.956565 2.650635 -5.464857 51.723810 0.000000 -0.000003 -0.000000 5.945861 -6.875905 81.685340 8.620191 -6.745009 103.956579 2.650632 -5.464861 51.723810 -0.000003 -0.000000 0.000001 5.945854 -6.875910 81.685354 8.620199 -6.745027 103.956572 2.650633 -5.464854 51.723810 0.000001 -0.000003 0.000001 -28.151455 25.406934 16.101799 27.996920 7.016489 9.852521 -2.785055 1.820334 -14.278313 -0.000072 0.000003 0.000004 -0.000000 0.000000 -0.000000 -17.534062 -16.532500 -10.770863 30.040056 -1.026794 -6.872262 -14.299316 -2.489462 12.252130 -0.000024 0.000014 0.000003 0.000000 -0.000002 0.000000 
0.548002 90.016052 -1.239096 1.562584 -26.759947 1.240543 3.992914 -1.460556 0.225259 1.495334 -0.584009 0.101200 0.000000 0.000000 0.000000 1.497951 -0.576600 0.104756 -2.617659 4.198878 2.840607 16.741166 24.081485 -12.364076 -0.000000 -0.000000 0.000000 -0.281260 3.073345 5.677564 0.000000 0.000000 0.000000 -51.670869 -1.468551 -53.178750 0.002698 -85.685317 0.002731 -13.994044 -20.655523 -8.594073 27.590983 19.106256 -21.055327 27.859549 42.153025 14.703703 8.091822 17.848655 9.739465 0.000001 0.000002 0.000002 6.438754 6.867028 -86.304624 7.312873 6.867697 -93.605297 2.157738 5.009657 -46.582959 0.000000 -0.000000 0.000000 6.436819 6.866910 -86.288409 7.314806 6.867588 -93.621512 2.157738 5.009659 -46.582945 0.000000 -0.000000 0.000001 6.438754 6.867028 -86.304624 7.312875 6.867702 -93.605304 2.157738 5.009653 -46.582966 -0.000000 0.000000 -0.000000 10.514956 7.128917 -86.291032 7.312038 2.781442 -93.595305 2.157739 5.009656 -46.582956 0.000001 -0.000000 -0.000000 -1.122341 -11.917097 10.268321 0.000000 0.000000 0.000000 -58.331988 66.132733 74.039879 -0.000023 83.601037 0.000071 -16.154569 14.982350 -32.734733 35.509597 -4.573164 10.809904 66.380812 -29.907961 29.548717 25.917429 -18.540880 10.281092 -0.000001 -0.000003 0.000003 5.945853 -6.875911 81.685354 8.620188 -6.745017 103.956572 2.650639 -5.464862 51.723814 -0.000002 -0.000003 0.000001 5.945855 -6.875910 81.685354 8.620199 -6.745017 103.956572 2.650639 -5.464861 51.723814 -0.000002 -0.000002 0.000001 5.945858 -6.875900 81.685347 8.620189 -6.745017 103.956579 2.650635 -5.464863 51.723807 -0.000001 0.000002 -0.000001 5.945855 -6.875911 81.685354 8.620206 -6.745023 103.956572 2.650632 -5.464854 51.723814 -0.000001 -0.000002 -0.000003 -28.182243 25.445388 16.106964 28.005237 6.977396 9.854317 -2.792781 1.817012 -14.262759 -0.000072 0.000003 0.000004 0.000000 0.000000 -0.000000 -17.576138 -16.625177 -10.761965 30.055001 -0.962337 -6.934370 -14.308564 -2.485700 12.251354 -0.000024 0.000014 0.000003 -0.000000 -0.000000 -0.000000 
